HIERARCHY
ROOT hip
{
  OFFSET 0 0 0
  CHANNELS 6 Xposition Yposition Zposition Zrotation Yrotation Xrotation
  JOINT abdomen
  {
    OFFSET 0 20.6881 -0.73152
    CHANNELS 3 Zrotation Xrotation Yrotation
    JOINT chest
    {
      OFFSET 0 11.7043 -0.48768
      CHANNELS 3 Zrotation Xrotation Yrotation
      JOINT neck
      {
        OFFSET 0 22.1894 -2.19456
        CHANNELS 3 Zrotation Xrotation Yrotation
        JOINT head
        {
          OFFSET -0.24384 7.07133 1.2192
          CHANNELS 3 Zrotation Xrotation Yrotation
          JOINT leftEye
          {
            OFFSET 4.14528 8.04674 8.04672
            CHANNELS 3 Zrotation Xrotation Yrotation
            End Site
            {
              OFFSET 1 0 0
            }
          }
          JOINT rightEye
          {
            OFFSET -3.6576 8.04674 8.04672
            CHANNELS 3 Zrotation Xrotation Yrotation
            End Site
            {
              OFFSET 1 0 0
            }
          }
        }
      }
      JOINT rCollar
      {
        OFFSET -2.68224 19.2634 -4.8768
        CHANNELS 3 Zrotation Xrotation Yrotation
        JOINT rShldr
        {
          OFFSET -8.77824 -1.95073 1.46304
          CHANNELS 3 Zrotation Xrotation Yrotation
          JOINT rForeArm
          {
            OFFSET -28.1742 -1.7115 0.48768
            CHANNELS 3 Zrotation Xrotation Yrotation
            JOINT rHand
            {
              OFFSET -22.5879 0.773209 7.07136
              CHANNELS 3 Zrotation Xrotation Yrotation
              JOINT rThumb1
              {
                OFFSET -1.2192 -0.487915 3.41376
                CHANNELS 3 Zrotation Xrotation Yrotation
                JOINT rThumb2
                {
                  OFFSET -3.37035 -0.52449 3.41376
                  CHANNELS 3 Zrotation Xrotation Yrotation
                  End Site
                  {
                    OFFSET -1.78271 -1.18214 1.43049
                  }
                }
              }
              JOINT rIndex1
              {
                OFFSET -7.75947 0.938293 5.60832
                CHANNELS 3 Zrotation Xrotation Yrotation
                JOINT rIndex2
                {
                  OFFSET -2.54057 -0.884171 1.56538
                  CHANNELS 3 Zrotation Xrotation Yrotation
                  End Site
                  {
                    OFFSET -1.62519 -0.234802 1.16502
                  }
                }
              }
              JOINT rMid1
              {
                OFFSET -8.24714 1.18213 3.41376
                CHANNELS 3 Zrotation Xrotation Yrotation
                JOINT rMid2
                {
                  OFFSET -3.10165 -0.590103 1.0647
                  CHANNELS 3 Zrotation Xrotation Yrotation
                  End Site
                  {
                    OFFSET -2.48547 -0.328903 0.83742
                  }
                }
              }
              JOINT rRing1
              {
                OFFSET -8.82822 0.546677 1.51678
                CHANNELS 3 Zrotation Xrotation Yrotation
                JOINT rRing2
                {
                  OFFSET -2.60934 -0.819778 -0.0198488
                  CHANNELS 3 Zrotation Xrotation Yrotation
                  End Site
                  {
                    OFFSET -2.33842 -0.294052 0.168128
                  }
                }
              }
              JOINT rPinky1
              {
                OFFSET -8.27202 -0.0477905 -0.4584
                CHANNELS 3 Zrotation Xrotation Yrotation
                JOINT rPinky2
                {
                  OFFSET -1.82734 -0.647385 -0.700984
                  CHANNELS 3 Zrotation Xrotation Yrotation
                  End Site
                  {
                    OFFSET -1.69225 -0.51767 -0.607171
                  }
                }
              }
            }
          }
        }
      }
      JOINT lCollar
      {
        OFFSET 2.68224 19.2634 -4.8768
        CHANNELS 3 Zrotation Xrotation Yrotation
        JOINT lShldr
        {
          OFFSET 8.77824 -1.95073 1.46304
          CHANNELS 3 Zrotation Xrotation Yrotation
          JOINT lForeArm
          {
            OFFSET 28.1742 -1.7115 0.48768
            CHANNELS 3 Zrotation Xrotation Yrotation
            JOINT lHand
            {
              OFFSET 22.5879 0.773209 7.07136
              CHANNELS 3 Zrotation Xrotation Yrotation
              JOINT lThumb1
              {
                OFFSET 1.2192 -0.487915 3.41376
                CHANNELS 3 Zrotation Xrotation Yrotation
                JOINT lThumb2
                {
                  OFFSET 3.37035 -0.52449 3.41376
                  CHANNELS 3 Zrotation Xrotation Yrotation
                  End Site
                  {
                    OFFSET 1.78271 -1.18214 1.43049
                  }
                }
              }
              JOINT lIndex1
              {
                OFFSET 7.75947 0.938293 5.60832
                CHANNELS 3 Zrotation Xrotation Yrotation
                JOINT lIndex2
                {
                  OFFSET 2.54057 -0.884171 1.56538
                  CHANNELS 3 Zrotation Xrotation Yrotation
                  End Site
                  {
                    OFFSET 1.62519 -0.234802 1.16502
                  }
                }
              }
              JOINT lMid1
              {
                OFFSET 8.24714 1.18213 3.41376
                CHANNELS 3 Zrotation Xrotation Yrotation
                JOINT lMid2
                {
                  OFFSET 3.10165 -0.590103 1.0647
                  CHANNELS 3 Zrotation Xrotation Yrotation
                  End Site
                  {
                    OFFSET 2.48547 -0.328903 0.83742
                  }
                }
              }
              JOINT lRing1
              {
                OFFSET 8.82822 0.546677 1.51678
                CHANNELS 3 Zrotation Xrotation Yrotation
                JOINT lRing2
                {
                  OFFSET 2.60934 -0.819778 -0.0198488
                  CHANNELS 3 Zrotation Xrotation Yrotation
                  End Site
                  {
                    OFFSET 2.33842 -0.294052 0.168128
                  }
                }
              }
              JOINT lPinky1
              {
                OFFSET 8.27202 -0.0477905 -0.4584
                CHANNELS 3 Zrotation Xrotation Yrotation
                JOINT lPinky2
                {
                  OFFSET 1.82734 -0.647385 -0.700984
                  CHANNELS 3 Zrotation Xrotation Yrotation
                  End Site
                  {
                    OFFSET 1.69225 -0.51767 -0.607171
                  }
                }
              }
            }
          }
        }
      }
    }
  }
  JOINT rButtock
  {
    OFFSET -8.77824 4.35084 1.2192
    CHANNELS 3 Zrotation Xrotation Yrotation
    JOINT rThigh
    {
      OFFSET 0 -1.70687 -2.19456
      CHANNELS 3 Zrotation Xrotation Yrotation
      JOINT rShin
      {
        OFFSET 0 -36.8199 0.73152
        CHANNELS 3 Zrotation Xrotation Yrotation
        JOINT rFoot
        {
          OFFSET 0.73152 -45.1104 -5.12064
          CHANNELS 3 Zrotation Xrotation Yrotation
          End Site
          {
            OFFSET -1.1221 -3.69964 12.103
          }
        }
      }
    }
  }
  JOINT lButtock
  {
    OFFSET 8.77824 4.35084 1.2192
    CHANNELS 3 Zrotation Xrotation Yrotation
    JOINT lThigh
    {
      OFFSET 0 -1.70687 -2.19456
      CHANNELS 3 Zrotation Xrotation Yrotation
      JOINT lShin
      {
        OFFSET 0 -36.8199 0.73152
        CHANNELS 3 Zrotation Xrotation Yrotation
        JOINT lFoot
        {
          OFFSET -0.73152 -45.1104 -5.12064
          CHANNELS 3 Zrotation Xrotation Yrotation
          End Site
          {
            OFFSET 1.1221 -3.69964 12.103
          }
        }
      }
    }
  }
}
MOTION
Frames:	5
Frame Time:	0.03333
-22.2022 68.8388 -18.0291 -179.951096 -35.976982 -176.154386 -1.368457 -3.210271 -105.040941 6.895532 -0.55326 105.915453 6.669381 18.253121 113.398854 -28.067274 16.289058 -144.043073 -0.001706 -0.0 0.000568 -0.001101 -0.0 0.005924 -78.72794 68.390438 81.807834 -59.067677 42.797552 27.212167 36.529487 31.715783 -129.008164 -152.627737 34.424716 128.710021 -17.200929 15.600604 4.930065 -27.031139 17.165293 31.024403 -148.885516 -12.609398 120.245992 -3.295771 24.995763 -3.260111 7.903698 -24.807684 -3.01315 -163.294841 -4.560998 143.308539 -145.11131 -0.627503 -178.931894 -152.354811 -24.841334 -175.375345 -111.058354 -41.160676 -109.118093 -151.032255 25.997675 -145.16946 40.035571 -86.056448 61.566402 -48.242784 2.729489 -5.601326 92.128736 1.108105 -166.687485 -160.537481 -76.664732 -139.414866 3.031351 2.96372 -0.541712 14.79559 14.44721 -14.48922 -6.228486 -10.728394 3.099129 -11.778247 1.606568 0.561889 10.975949 25.789918 -7.639806 1.8803 14.321702 -2.569492 -0.004048 1.7719 -0.556353 -8.164039 20.622744 -2.929697 79.224516 -51.408456 77.662119 147.030341 13.580208 143.174063 179.982369 75.750731 0.012064 160.707826 29.602715 -180.0 -66.055269 -70.506043 -132.441982 51.961174 67.919728 -133.798048 0.0 -0.000157 0.000116 31.988854 -34.898153 -98.074918 -87.107963 -42.900274 -173.651315 -2.117647 44.791533 -92.635846
-24.0273 67.9713 -18.8662 -179.680999 -35.429942 -176.141259 -5.670276 -2.177697 75.995921 -6.937051 -4.092755 -76.093412 -14.021927 16.126399 -76.951198 33.085428 8.961101 38.720546 -0.003215 0.0 -0.001909 0.003808 0.0 0.001935 -78.728324 68.390154 81.807813 -43.459652 30.244607 19.117757 -167.955193 -62.31085 -87.111437 -7.729546 -6.560977 -3.380209 16.054544 -15.91547 -0.22837 -138.27391 -34.802906 124.76635 -155.193345 -24.29995 122.142998 9.647241 4.794625 -9.156052 -160.097321 -4.901352 142.96873 3.441519 -0.61707 0.279011 -145.096373 -1.605616 -178.624906 -64.210503 87.670069 77.600244 -25.537053 -38.087976 -24.597679 -165.3721 69.703728 -148.197929 159.22011 -48.028312 -170.416133 -35.417461 10.772022 11.798933 116.852569 36.309258 142.747218 -4.31639 -45.436918 3.489168 2.813585 2.754318 -0.498457 -5.59999 -6.450734 2.527558 108.427876 34.161128 -91.742926 159.887315 -2.954141 -115.644228 0.056576 0.168136 -0.031184 27.694799 51.089586 -22.908333 -0.004652 0.876252 -0.275002 -4.225223 41.435804 -7.708261 157.330019 57.24627 150.512254 -0.609277 -2.399982 2.423615 0.000113 0.001948 0.000113 -19.663296 -38.63913 -29.780958 37.001836 72.248047 53.157842 -7.904222 54.166659 -81.40037 -179.977407 75.750064 -0.015459 -151.470717 30.652646 133.163077 78.224473 -38.037747 -104.491629 116.463356 -22.011977 -19.995699
-25.9393 66.72240000000001 -19.787 -179.762629 -34.68493 -175.526137 -3.435276 -1.315598 -0.222238 0.256547 -9.372898 0.765611 -11.184092 23.31595 -121.438931 26.714309 30.678782 78.076302 -0.005005 -0.0 0.000537 0.000375 -0.0 -0.001077 3.191662 -25.838906 -5.074398 -131.18629 9.154105 141.855744 176.795098 -69.587598 -91.094013 -9.251409 15.598682 -0.455702 -0.492559 0.484266 0.077553 16.309234 -24.719257 -11.706205 -77.666541 43.029584 64.538973 134.852017 -62.472181 80.740827 -0.221389 0.638112 0.123304 2.677613 1.652215 0.198763 -77.742393 72.903232 95.870061 5.052623 29.726248 -0.576315 -75.779334 -51.668915 -74.249133 9.078794 16.805795 3.395641 159.217629 -47.445925 -170.289861 143.105778 -5.775751 176.832169 -72.229865 14.060679 -116.920411 104.499766 68.911156 -82.498727 159.652383 2.600423 -88.799791 -51.305249 -61.473715 -40.6543 142.225501 -0.987911 -117.060286 5.521438 26.113445 2.35839 -0.048134 -0.138514 0.026553 -2.945076 0.844707 -0.085168 145.120695 1.974595 179.748552 151.995726 -28.057025 174.716809 -7.795446 24.328196 -6.894316 154.7325 36.585265 148.208391 -0.001094 -0.000135 0.001407 -16.801079 -35.700587 -10.267602 51.065831 57.588172 22.278699 -88.775346 74.237783 -0.240698 0.001767 0.00016 0.0 29.793658 -36.585467 19.337865 -60.036501 73.960694 144.356892 -92.878679 70.919579 -2.257779
-27.7762 65.4985 -20.5775 -179.973859 -33.973714 -174.43549 -3.40576 -2.845285 -0.311157 0.260335 -9.161779 1.047102 -5.177477 26.430769 -158.638631 8.286092 40.617559 118.272647 0.003819 0.0 0.001642 -0.002673 -0.0 0.003689 -142.97429 39.431968 147.390781 154.855025 79.623685 -166.500446 119.70029 -20.499932 -65.719321 -148.625944 64.476913 125.931095 -12.926783 12.051347 3.310303 -106.684768 -0.983539 96.305681 -138.764171 4.48775 115.031768 178.746645 -44.694927 113.719781 -36.036509 51.723279 29.831616 -42.045829 58.503366 36.270477 -145.119809 0.267356 -179.21331 -154.154258 -12.723924 -177.474525 -41.390241 -46.840549 -40.213973 -84.519119 -53.379623 -84.89979 0.04956 0.292262 -0.065811 103.197297 61.774476 -105.249781 119.651702 0.47526 16.405107 -40.059755 -64.891235 -26.529485 169.572526 -7.253719 -89.929469 48.041206 -15.007352 -10.130702 151.354747 -17.158263 -121.132389 -177.754706 -49.222467 -112.389112 82.840811 61.11037 -74.53223 7.209064 26.187078 -6.237375 72.965872 -72.14354 89.989906 -13.902553 29.735579 0.553009 -0.552118 1.455628 -0.507395 137.161592 -15.268099 134.895816 179.988048 75.749493 0.009834 164.493939 40.157243 9.906238 49.361706 59.342985 58.085472 -73.518289 -28.004951 -144.25261 179.992138 75.74858 0.008112 -154.719146 32.65542 -13.858336 -44.864763 59.583283 33.583321 31.979166 -8.325911 8.06073
-29.5729 64.4525 -21.2246 -179.548053 -33.2695 -173.68135 -1.404581 -4.25814 -18.274665 2.082361 -8.609674 19.487797 -7.812582 8.159606 -15.289252 15.964381 -19.097144 -21.968351 0.003884 0.0 0.003603 -0.002073 0.0 -0.000847 -155.809857 -5.555542 162.266296 2.252468 0.12526 -12.684158 109.162537 -42.451774 -114.405272 -135.544735 73.396274 116.249642 -162.890536 -0.576243 89.35295 103.797772 -60.198295 74.742578 -149.660122 -14.029789 120.541124 -163.432044 -19.332947 119.514301 -171.806235 -40.92201 145.169066 -42.549253 58.287167 36.525706 -0.016577 -1.323317 -0.414759 9.189012 14.190202 1.879695 13.633009 46.898723 11.157339 -160.802791 55.49023 -149.438602 6.029113 25.557126 -7.219305 -91.011464 -83.627367 -85.574508 60.074142 -65.431922 -140.225514 -148.97198 -53.457717 -129.323113 15.475827 14.198357 -4.248881 -29.822409 -34.162051 6.456432 4.706439 7.224098 -2.854707 10.177597 25.327515 -8.132071 89.835269 60.700714 -81.262476 -3.358176 0.218587 -0.197588 -0.000211 -0.018745 0.004306 -11.548093 -29.448192 3.528804 -29.936052 82.26229 -7.932341 6.506522 -17.51249 7.760525 -0.0 -0.000685 -0.001527 -12.656931 -34.473746 -57.408824 -67.430434 50.238958 -76.752104 -165.737371 17.850255 -113.069833 -179.993726 75.749749 -0.005536 -158.388686 31.679594 142.971235 68.175012 -35.046557 169.293276 173.130552 30.839503 -88.362599
